PathFileType	4	(X/Y/Z)	Patient4_TMGait_0pt4_03_left_06.trc.trc
DataRate	CameraRate	NumFrames	NumMarkers	Units	OrigDataRate	OrigDataStartFrame	OrigNumFrames
76.086956521739	76.086956521739	4	33	mm	76.086956521739	124	       141
Frame#	Time	Sacral			L.Shoulder			Chest			R.Shoulder			Neck			R.ASIS			L.ASIS			R.Thigh.Superior			R.Thigh.Lateral			R.Thigh.Inferior			R.Patella			L.Thigh.Superior			L.Thigh.Lateral			L.Thigh.Inferior			L.Patella			L.Shank.Superior			L.Shank.Lateral			L.Shank.Inferior			R.Shank.Superior			R.Shank.Lateral			R.Shank.Inferior			R.Heel			R.Midfoot.Superior			R.Midfoot.Lateral			R.Toe			L.Heel			L.Midfoot.Lateral			L.Midfoot.Superior			L.Toe			L.Elbow			L.Wrist			R.Elbow			R.Wrist			
		X1	Y1	Z1	X2	Y2	Z2	X3	Y3	Z3	X4	Y4	Z4	X5	Y5	Z5	X6	Y6	Z6	X7	Y7	Z7	X8	Y8	Z8	X9	Y9	Z9	X10	Y10	Z10	X11	Y11	Z11	X12	Y12	Z12	X13	Y13	Z13	X14	Y14	Z14	X15	Y15	Z15	X16	Y16	Z16	X17	Y17	Z17	X18	Y18	Z18	X19	Y19	Z19	X20	Y20	Z20	X21	Y21	Z21	X22	Y22	Z22	X23	Y23	Z23	X24	Y24	Z24	X25	Y25	Z25	X26	Y26	Z26	X27	Y27	Z27	X28	Y28	Z28	X29	Y29	Z29	X30	Y30	Z30	X31	Y31	Z31	X32	Y32	Z32	X33	Y33	Z33	

124	9.046571428571	823.354480258160	1010.376921207695	523.268370132917	994.382892942976	1420.842437383871	309.680270472212	1117.954416237492	1352.166588871485	455.514990958621	1067.699509868301	1435.896256339611	637.192689600834	1004.649455481830	1488.832069961943	463.168828042276	1058.145475532956	929.157588385217	612.120959500674	1015.859492220743	957.323423182211	341.157177683169	1057.164237315399	718.711924221623	583.184946941065	961.915458269330	625.487052157486	654.657715274997	1017.620420593637	560.051545058116	569.422327902163	1000.060871033911	474.747825668358	577.444922837918	1084.594963135819	765.507342312561	370.469742559526	1024.891533446370	639.902943061382	298.910064789847	1124.230596978493	576.532150222263	361.334805989452	1144.389338595489	510.516386487292	360.421090477803	1125.099334088172	438.549908991098	349.004435397545	1052.370807087146	312.717855786279	297.627256967882	1132.348300424563	209.103392741252	354.711445544184	959.993426997026	390.917830524891	588.754297851452	877.270589873845	300.914837947939	657.963269940532	898.252742229005	199.677037962071	594.742569057267	743.250184495002	44.552379863196	574.100868408275	914.867226269380	96.042774613413	607.683537734829	826.479280384709	36.902627133784	647.725259650710	1034.558944778512	41.404091154868	637.555275966518	1037.291773962332	38.733117245540	390.411293614415	1113.579009572252	39.512729718048	312.624297362938	1189.405131616650	109.196408394995	338.833155425373	1321.139307788549	69.272027587885	315.550085702266	872.056441525766	1079.901984783828	234.088553250489	869.696603689807	819.587087980112	214.590218649111	1170.255591114893	1104.881400450542	740.254998849295	1379.803444438765	1141.960539073417	609.647131488458	
125	9.059714285714	825.234817814833	1009.000151120512	520.389315192972	994.590827843640	1419.983096978027	306.709915107463	1118.213889266575	1352.039660541555	452.806493993124	1067.141576520382	1435.331293197383	634.495741418901	1004.449161514999	1488.178414432964	460.084409379414	1060.218012238995	928.513702722193	609.985367149877	1018.334637916825	956.140830156234	339.043560131833	1058.379948364348	717.681285401592	581.630228998356	962.243991081327	624.742988851527	652.962672062108	1017.940023533867	558.798829916288	568.158606801530	999.726826166976	473.197995940731	576.099301183597	1086.870987336588	763.034496142155	368.102854628263	1024.459393215995	637.597559592099	298.369944307841	1124.022736313669	574.147689708832	360.386136399096	1142.465774440599	507.489001853901	360.460409842098	1123.017891368337	435.514068754902	349.159849150353	1048.912044262256	310.211911592821	298.622469472513	1127.572222203415	206.050083675163	356.122789777905	958.492276478624	389.869901196038	587.656450431373	874.783142658052	301.061135234924	657.418361066676	894.373911097544	199.387441027396	594.466340246553	737.957372804695	45.243407704968	574.365335695611	909.805825333729	96.101051079050	607.792419376265	821.276192575144	37.132654777068	647.858108633911	1029.408642385737	41.105337129343	637.667911846713	1029.834997274406	38.226990475718	392.873600945487	1105.634519144952	37.911186163462	314.462109727235	1183.334149336103	105.263809729101	340.863189629574	1314.195486599811	62.202810475155	316.426779916808	872.950830050387	1078.868961043070	231.464124092501	871.005103027338	818.494667763535	211.958651798911	1168.960112102897	1102.882783606871	735.415682881258	1378.879539098674	1136.284732062223	603.720716377246	
126	9.072857142857	827.080205536267	1007.802317952183	517.496768857035	994.820202037712	1419.231015112060	303.608643107405	1118.505735445582	1352.043744669876	449.969749187278	1066.659906436018	1434.948156786720	631.671136174520	1004.301432134646	1487.685988091984	456.846826342841	1062.273819184420	928.018851118844	607.655966531053	1020.684731698513	955.274089501440	336.777255029961	1059.830239581950	716.827542223134	579.874034189287	962.937051107847	624.099210617917	651.104347713638	1018.682870597141	557.684461392292	566.734315836328	999.973644978197	471.611056117066	574.704194619450	1089.293522315453	761.185825581551	365.756712239520	1024.825664153873	635.948874281976	297.487879355621	1124.441981595666	572.458247510216	359.397155860889	1141.250689354651	505.111169932900	360.350395919107	1121.650545201735	433.028641600454	349.107987190687	1046.329967929034	308.349983767316	298.880351823504	1123.237234983606	203.504238734457	357.077769533407	957.391119198627	388.887951332597	586.507585499528	872.591344191643	301.402537625842	656.826796687736	890.705074829661	199.264355710238	594.205215908752	732.699149091007	46.325682259773	574.680728638618	904.877939681580	96.198420839112	607.946327315158	816.117925681036	37.539654770098	648.023854779165	1024.298857793775	40.753579434615	637.787335815017	1022.658301898643	37.951516634913	394.523805403053	1098.101443198968	36.774145861221	315.619455154233	1177.430227196174	102.061883806414	342.370321806116	1307.572618239598	56.245147139220	316.979580200522	874.451538242716	1077.722575386330	228.525444066146	873.382981965169	817.290189982144	208.914589089961	1166.975888997321	1100.908393197296	730.956124840571	1377.515902372751	1129.370661705124	598.235271343566	
127	9.086000000000	828.856518633991	1006.855974305476	514.600946514522	995.057901481397	1418.662620191972	300.420022205363	1118.831365474323	1352.202770232990	447.015218908600	1066.315936739987	1434.790851516128	628.729136046878	1004.236427382922	1487.403286296505	453.512479119135	1064.252785816996	927.741890093888	605.111815790674	1022.849585902754	954.768004479428	334.313798508517	1061.501668404889	716.214090013829	577.902715473877	964.050726590772	623.594938542298	649.092709656323	1019.928626339244	556.764726452236	565.151435928362	1000.930597785965	470.013112182000	573.321268541956	1091.796357550555	760.058847777137	363.459238658517	1025.984140391412	634.986436062499	296.257998034806	1125.436925544603	571.451437716909	358.311069143861	1140.732481823757	503.404820951852	360.033666163586	1120.976056740623	431.122036687365	348.839129419701	1044.631876777547	307.134420409018	298.435775444310	1119.411356904564	201.518249027968	357.605469124634	956.794737120550	388.008724295233	585.346764716788	870.763149234734	302.003202480796	656.189928128505	887.324761065513	199.366211900047	593.977352409073	727.515982898559	47.921237130630	575.039962293565	900.139024760564	96.349858993008	608.155455444502	811.025541079377	38.190857044197	648.217808664544	1019.225612472333	40.355411493165	637.904990763760	1015.968641140994	37.860120542879	395.433802023497	1091.191684749625	36.061864489367	316.186560687901	1171.815579279980	99.674716290105	343.375931076315	1301.422225330471	51.617913777336	317.281305099979	876.507011026998	1076.560492149592	225.302790705460	876.832732164991	816.075556656023	205.485921240364	1164.370011170661	1099.044348617475	726.904015075143	1375.699795309804	1121.170193895117	593.245870673203	
